# xmcd CD database file
#
# Track frame offsets:
#	182
#	11085
#	23360
#	37027
#	52287
#	67717
#	80195
#	95332
#	110022
#	120595
#
# Disc length: 1799 seconds
#
# Revision: 0
# Processed by: cddbd v1.4PL0 Copyright (c) Steve Scherf et al.
# Submitted via: CDex 1.50
#
DISCID=7e07050a
DTITLE=Sammy Davis Jr. - Sammy In Nashville
DYEAR=1900
DGENRE=Country
TTITLE0=Oh, Lonesome me
TTITLE1=The River's Too Wide
TTITLE2=Smoke, Smoke, Smoke (That Cigarette)
TTITLE3=Come Sundown
TTITLE4=Please Don't Tell Me How The Story Ends
TTITLE5=What I've Got In My Mind
TTITLE6=Hey, Won't You Play (Another Somebody Done Somebody Wrong Song)
TTITLE7=We Could Have Been The Closest of Friends
TTITLE8=Mention A Mansion
TTITLE9=You're Gonna Love Yourself (In The Morning)
EXTD=
EXTT0=
EXTT1=
EXTT2=
EXTT3=
EXTT4=
EXTT5=
EXTT6=
EXTT7=
EXTT8=
EXTT9=
PLAYORDER=
